<svg width="38" height="38" viewBox="0 0 38 38" fill="none" xmlns="http://www.w3.org/2000/svg">
<path d="M19 36C28.3888 36 36 28.3888 36 19C36 9.61116 28.3888 2 19 2C9.61116 2 2 9.61116 2 19C2 28.3888 9.61116 36 19 36Z" stroke="#FFAF2C" stroke-width="4" stroke-linecap="round" stroke-linejoin="round"/>
<path d="M2 19C2 28.3888 9.61116 36 19 36V2C9.61116 2 2 9.61116 2 19Z" fill="#FFAF2C" fill-opacity="0.1"/>
<path d="M19 10L19 13" stroke="#FFAF2C" stroke-width="4" stroke-linecap="round" stroke-linejoin="round"/>
<path d="M19 25L19 28" stroke="#FFAF2C" stroke-width="4" stroke-linecap="round" stroke-linejoin="round"/>
<path d="M22 13.2729H16.8636C16.1042 13.2729 15.3758 13.5747 14.8387 14.1117C14.3017 14.6487 14 15.3771 14 16.1366C14 16.8961 14.3017 17.6244 14.8387 18.1615C15.3758 18.6985 16.1042 19.0002 16.8636 19.0002H20.9545C21.714 19.0002 22.4424 19.3019 22.9794 19.839C23.5165 20.376 23.8182 21.1044 23.8182 21.8639C23.8182 22.6233 23.5165 23.3517 22.9794 23.8888C22.4424 24.4258 21.714 24.7275 20.9545 24.7275H15" stroke="#FFAF2C" stroke-width="4" stroke-linecap="round" stroke-linejoin="round"/>
</svg>
