<svg width="199" height="263" fill="none" xmlns="http://www.w3.org/2000/svg"><g filter="url(#filter0_d)"><rect x="-21" y="-7" width="140" height="140" rx="40" fill="#FFAF2C"/></g><g filter="url(#filter1_d)"><path fill-rule="evenodd" clip-rule="evenodd" d="M50.343 25.667L15.58 47.084v6.297h67.983v-6.297L50.343 25.667zm28.435 64.086H20.372v5.29h-4.184v5.291h66.774v-5.29h-4.184v-5.291zm-56.072-3.278V82.76h1.905V60.499h-1.905v-3.716h14.356V60.5h-1.904v22.26h1.904v3.716H22.706zm19.69-3.715v3.715H56.75V82.76h-1.904V60.499h1.904v-3.716H42.397V60.5H44.3v22.26h-1.904zm19.694 3.715V82.76h1.904V60.499H62.09v-3.716h14.356V60.5H74.54v22.26h1.905v3.716H62.09z" fill="#fff"/></g><defs><filter id="filter0_d" x="-101" y="-37" width="300" height="300" filterUnits="userSpaceOnUse" color-interpolation-filters="sRGB"><feFlood flood-opacity="0" result="BackgroundImageFix"/><feColorMatrix in="SourceAlpha" values="0 0 0 0 0 0 0 0 0 0 0 0 0 0 0 0 0 0 127 0"/><feOffset dy="50"/><feGaussianBlur stdDeviation="40"/><feColorMatrix values="0 0 0 0 1 0 0 0 0 0.686275 0 0 0 0 0.172549 0 0 0 0.1 0"/><feBlend in2="BackgroundImageFix" result="effect1_dropShadow"/><feBlend in="SourceGraphic" in2="effect1_dropShadow" result="shape"/></filter><filter id="filter1_d" x=".581" y="20.667" width="97.984" height="104.668" filterUnits="userSpaceOnUse" color-interpolation-filters="sRGB"><feFlood flood-opacity="0" result="BackgroundImageFix"/><feColorMatrix in="SourceAlpha" values="0 0 0 0 0 0 0 0 0 0 0 0 0 0 0 0 0 0 127 0"/><feOffset dy="10"/><feGaussianBlur stdDeviation="7.5"/><feColorMatrix values="0 0 0 0 0 0 0 0 0 0 0 0 0 0 0 0 0 0 0.05 0"/><feBlend in2="BackgroundImageFix" result="effect1_dropShadow"/><feBlend in="SourceGraphic" in2="effect1_dropShadow" result="shape"/></filter></defs></svg>