<svg width="34" height="31" viewBox="0 0 34 31" fill="none" xmlns="http://www.w3.org/2000/svg">
<path d="M29.6866 4.31328C28.9536 3.5799 28.0832 2.99814 27.1253 2.60122C26.1674 2.2043 25.1406 2 24.1037 2C23.0668 2 22.04 2.2043 21.0821 2.60122C20.1242 2.99814 19.2538 3.5799 18.5208 4.31328L16.9995 5.83458L15.4782 4.31328C13.9975 2.8326 11.9893 2.00077 9.89529 2.00077C7.8013 2.00077 5.79307 2.8326 4.31239 4.31328C2.83171 5.79396 1.99988 7.80219 1.99988 9.89618C1.99988 11.9902 2.83171 13.9984 4.31239 15.4791L5.83369 17.0004L16.9995 28.1662L28.1653 17.0004L29.6866 15.4791C30.42 14.746 31.0017 13.8757 31.3987 12.9178C31.7956 11.9598 31.9999 10.9331 31.9999 9.89618C31.9999 8.85927 31.7956 7.83252 31.3987 6.87459C31.0017 5.91666 30.42 5.04631 29.6866 4.31328V4.31328Z" stroke="#FFAF2C" stroke-width="4" stroke-linecap="round" stroke-linejoin="round"/>
<path d="M29.6866 4.31328C28.9536 3.5799 28.0832 2.99814 27.1253 2.60122C26.1674 2.2043 25.1406 2 24.1037 2C23.0668 2 22.04 2.2043 21.0821 2.60122C20.1242 2.99814 19.2538 3.5799 18.5208 4.31328L16.9995 5.83458C16.9996 12.9178 16.9994 16.5 16.9995 28.1662L28.1653 17.0004L29.6866 15.4791C30.42 14.746 31.0017 13.8757 31.3987 12.9178C31.7956 11.9598 31.9999 10.9331 31.9999 9.89618C31.9999 8.85927 31.7956 7.83252 31.3987 6.87459C31.0017 5.91666 30.42 5.04631 29.6866 4.31328Z" fill="#FFAF2C" fill-opacity="0.1"/>
</svg>
