<svg width="31" height="34" viewBox="0 0 31 34" fill="none" xmlns="http://www.w3.org/2000/svg">
<path d="M25.9998 15.5H5.00005C3.34322 15.5 2.00009 16.8431 2.00009 18.5V28.9998C2.00009 30.6567 3.34322 31.9998 5.00005 31.9998H25.9998C27.6566 31.9998 28.9998 30.6567 28.9998 28.9998V18.5C28.9998 16.8431 27.6566 15.5 25.9998 15.5Z" stroke="#FFAF2C" stroke-width="4" stroke-linecap="round" stroke-linejoin="round"/>
<path d="M25.7038 22H4.96305C3.32666 22 2.00009 22.814 2.00009 23.8182V30.1818C2.00009 31.186 3.32666 32 4.96305 32H25.7038C27.3402 32 28.6668 31.186 28.6668 30.1818V23.8182C28.6668 22.814 27.3402 22 25.7038 22Z" fill="#FFAF2C" fill-opacity="0.15"/>
<path d="M7.99991 15.4998V9.49991C7.99991 7.51081 8.79007 5.60318 10.1966 4.19667C11.6031 2.79017 13.5107 2 15.4998 2C17.4889 2 19.3965 2.79017 20.803 4.19667C22.2096 5.60318 22.9997 7.51081 22.9997 9.49991V15.4998" stroke="#FFAF2C" stroke-width="4" stroke-linecap="round" stroke-linejoin="round"/>
</svg>
