<svg width="218" height="229" fill="none" xmlns="http://www.w3.org/2000/svg"><g filter="url(#filter0_d)"><path d="M227.941 185.637a4.447 4.447 0 003.762-2.172c6.631-10.894 35.44-62.209 14.093-99.183l-26.268-45.497a5 5 0 00-5.15-2.432l-62.13 10.323a5.001 5.001 0 00-3.042 1.757l-40.005 48.644a5 5 0 00-.469 5.676L135 148.25c21.347 36.974 80.191 37.682 92.941 37.387z" fill="#00E595"/></g><g filter="url(#filter1_d)" fill="#fff"><path d="M206.115 101.88c-13.986 8.239-19.485 11.239-32.934 19.014-2.831 2.026-3.693 5.942-1.917 9.019l9.94 17.215c1.903 3.297 6.134 4.371 9.354 2.511l31.762-18.338c3.294-1.901 4.363-6.133 2.502-9.356l-9.981-17.289c-1.777-3.077-5.557-4.215-8.726-2.776z"/><path fill-rule="evenodd" clip-rule="evenodd" d="M204.11 98.406l-1.843-3.192c-4.822-8.351-15.561-11.235-23.905-6.418l-2.634 1.521c-8.343 4.817-11.216 15.56-6.395 23.911l1.843 3.192 8.929-5.155L178.22 109a7.18 7.18 0 012.625-9.818l2.635-1.522a7.18 7.18 0 019.816 2.636l1.885 3.265 8.929-5.155z"/></g><defs><filter id="filter0_d" x=".17" y=".295" width="390.333" height="401.731" filterUnits="userSpaceOnUse" color-interpolation-filters="sRGB"><feFlood flood-opacity="0" result="BackgroundImageFix"/><feColorMatrix in="SourceAlpha" values="0 0 0 0 0 0 0 0 0 0 0 0 0 0 0 0 0 0 127 0"/><feOffset dx="5" dy="85"/><feGaussianBlur stdDeviation="50"/><feColorMatrix values="0 0 0 0 0 0 0 0 0 0.898039 0 0 0 0 0.584314 0 0 0 0.1 0"/><feBlend in2="BackgroundImageFix" result="effect1_dropShadow"/><feBlend in="SourceGraphic" in2="effect1_dropShadow" result="shape"/></filter><filter id="filter1_d" x="150.578" y="80.05" width="97.67" height="103.012" filterUnits="userSpaceOnUse" color-interpolation-filters="sRGB"><feFlood flood-opacity="0" result="BackgroundImageFix"/><feColorMatrix in="SourceAlpha" values="0 0 0 0 0 0 0 0 0 0 0 0 0 0 0 0 0 0 127 0"/><feOffset dx="5" dy="15"/><feGaussianBlur stdDeviation="7.5"/><feColorMatrix values="0 0 0 0 0 0 0 0 0 0 0 0 0 0 0 0 0 0 0.05 0"/><feBlend in2="BackgroundImageFix" result="effect1_dropShadow"/><feBlend in="SourceGraphic" in2="effect1_dropShadow" result="shape"/></filter></defs></svg>