<svg width="200" height="291" fill="none" xmlns="http://www.w3.org/2000/svg"><g filter="url(#filter0_d)"><rect x="-40" y="15" width="140" height="140" rx="70" fill="#20D7FF"/></g><g filter="url(#filter1_d)"><path fill-rule="evenodd" clip-rule="evenodd" d="M54.339 55.833A5.833 5.833 0 0048.505 50H-1.5A5.119 5.119 0 012 54.856v48.911A22.96 22.96 0 008.723 120l52.777-.001a23.338 23.338 0 01-7.161-16.822V55.833zM31.987 72.167h6.293v8.444h3.166v5.278H38.28v8.444h-5.252l-8.375-11.646h-.136v11.646h-6.293V85.89h-3.167V80.61h3.167v-8.444h5.342l8.24 11.602h.18V72.167z" fill="#fff"/></g><defs><filter id="filter0_d" x="-140" y="0" width="340" height="340" filterUnits="userSpaceOnUse" color-interpolation-filters="sRGB"><feFlood flood-opacity="0" result="BackgroundImageFix"/><feColorMatrix in="SourceAlpha" values="0 0 0 0 0 0 0 0 0 0 0 0 0 0 0 0 0 0 127 0"/><feOffset dy="85"/><feGaussianBlur stdDeviation="50"/><feColorMatrix values="0 0 0 0 0.12549 0 0 0 0 0.843137 0 0 0 0 1 0 0 0 0.1 0"/><feBlend in2="BackgroundImageFix" result="effect1_dropShadow"/><feBlend in="SourceGraphic" in2="effect1_dropShadow" result="shape"/></filter><filter id="filter1_d" x="-16.5" y="45" width="93" height="100" filterUnits="userSpaceOnUse" color-interpolation-filters="sRGB"><feFlood flood-opacity="0" result="BackgroundImageFix"/><feColorMatrix in="SourceAlpha" values="0 0 0 0 0 0 0 0 0 0 0 0 0 0 0 0 0 0 127 0"/><feOffset dy="10"/><feGaussianBlur stdDeviation="7.5"/><feColorMatrix values="0 0 0 0 0 0 0 0 0 0 0 0 0 0 0 0 0 0 0.05 0"/><feBlend in2="BackgroundImageFix" result="effect1_dropShadow"/><feBlend in="SourceGraphic" in2="effect1_dropShadow" result="shape"/></filter></defs></svg>