<svg width="179" height="320" fill="none" xmlns="http://www.w3.org/2000/svg"><g filter="url(#filter0_d)"><rect x="100" y="15" width="120" height="120" rx="60" fill="#B14FFF"/></g><g filter="url(#filter1_d)" fill-rule="evenodd" clip-rule="evenodd" fill="#fff"><path d="M151.127 75.602h17.716c6.88 0 12.556 5.676 12.556 12.556v10.32c0 1.204-1.032 2.236-2.236 2.236h-38.356c-1.204 0-2.236-1.032-2.236-2.236v-10.32c0-6.88 5.676-12.556 12.556-12.556zM159.9 49.286c6.536 0 11.868 5.332 11.868 11.868 0 6.536-5.332 11.868-11.868 11.868-6.536 0-11.696-5.332-11.696-11.868 0-6.536 5.16-11.868 11.696-11.868z"/></g><defs><filter id="filter0_d" x="0" y="0" width="320" height="320" filterUnits="userSpaceOnUse" color-interpolation-filters="sRGB"><feFlood flood-opacity="0" result="BackgroundImageFix"/><feColorMatrix in="SourceAlpha" values="0 0 0 0 0 0 0 0 0 0 0 0 0 0 0 0 0 0 127 0"/><feOffset dy="85"/><feGaussianBlur stdDeviation="50"/><feColorMatrix values="0 0 0 0 0.694118 0 0 0 0 0.309804 0 0 0 0 1 0 0 0 0.1 0"/><feBlend in2="BackgroundImageFix" result="effect1_dropShadow"/><feBlend in="SourceGraphic" in2="effect1_dropShadow" result="shape"/></filter><filter id="filter1_d" x="123.571" y="44.286" width="72.829" height="81.429" filterUnits="userSpaceOnUse" color-interpolation-filters="sRGB"><feFlood flood-opacity="0" result="BackgroundImageFix"/><feColorMatrix in="SourceAlpha" values="0 0 0 0 0 0 0 0 0 0 0 0 0 0 0 0 0 0 127 0"/><feOffset dy="10"/><feGaussianBlur stdDeviation="7.5"/><feColorMatrix values="0 0 0 0 0 0 0 0 0 0 0 0 0 0 0 0 0 0 0.05 0"/><feBlend in2="BackgroundImageFix" result="effect1_dropShadow"/><feBlend in="SourceGraphic" in2="effect1_dropShadow" result="shape"/></filter></defs></svg>